<svg width="72" height="92" viewBox="0 0 72 92" fill="none" xmlns="http://www.w3.org/2000/svg">
<path fill-rule="evenodd" clip-rule="evenodd" d="M12.5505 0H57.1274C64.0302 0 69.6779 5.86667 69.6779 13.0371V13.0786C69.6779 20.2261 64.0482 26.0742 57.1674 26.0742H24.1104V39.1831H26.3428C33.2401 39.1831 38.8833 45.0449 38.8833 52.2097C38.8833 59.3743 33.2402 65.2365 26.3428 65.2365H24.1104V78.9134C24.1104 85.8008 18.6857 91.4359 12.0553 91.4359C5.4249 91.4359 0 85.8008 0 78.9134V25.8872V13.0372C0 5.86675 5.6477 0 12.5505 0Z" fill="url(#paint0_angular_812_2317)"/>
<path d="M24.111 39.1398H18.2629C14.7977 39.1398 11.9626 36.1948 11.9626 32.5953C11.9626 28.9958 14.7977 26.0508 18.2629 26.0508H24.1101L24.1109 39.1398H24.111Z" fill="#E5F4EC"/>
<path d="M24.1104 65.3503V78.9137C24.1104 85.8012 18.6857 91.4362 12.0553 91.4362C5.4249 91.4362 0 85.8012 0 78.9137V77.1668C0.422782 70.5929 5.73116 65.3503 12.162 65.3503H24.1104Z" fill="#E5F4EC"/>
<path fill-rule="evenodd" clip-rule="evenodd" d="M60.6886 39.4131C48.9477 36.9131 39.5802 46.6625 42.2705 58.6082L46.6255 57.6659C45.4402 48.3247 50.8454 42.7645 59.4488 44.2199L60.6886 39.4132V39.4131ZM51.7341 46.7802C50.6756 46.7802 49.8174 47.6714 49.8174 48.7712C49.8174 49.8707 50.6756 50.7622 51.7341 50.7622C52.7927 50.7622 53.6508 49.8707 53.6508 48.7712C53.6508 47.6715 52.7928 46.7802 51.7341 46.7802Z" fill="url(#paint1_linear_812_2317)"/>
<path fill-rule="evenodd" clip-rule="evenodd" d="M53.1174 70.0266C64.8583 72.5269 74.2258 62.7773 71.5355 50.8315L67.1805 51.7742C68.366 61.1152 62.9606 66.6755 54.3574 65.22L53.1174 70.0266ZM61.836 57.9645C60.7775 57.9645 59.9193 58.8557 59.9193 59.9555C59.9193 61.055 60.7775 61.9465 61.836 61.9465C62.8944 61.9465 63.7526 61.055 63.7526 59.9555C63.7526 58.8558 62.8944 57.9645 61.836 57.9645Z" fill="url(#paint2_linear_812_2317)"/>
<path d="M45.8107 63.8037C44.7522 63.8037 43.894 64.695 43.894 65.7947C43.894 66.8943 44.7522 67.7857 45.8107 67.7857C46.8694 67.7857 47.7274 66.8943 47.7274 65.7947C47.7274 64.6951 46.8694 63.8037 45.8107 63.8037ZM44.5247 51.2256L49.0006 52.6078C48.0313 59.3309 52.3795 63.9018 58.8601 62.9435L60.1001 67.6245C51.0733 69.0627 42.7517 63.7708 44.5247 51.2256Z" fill="#E5F4EC"/>
<path d="M53.7188 41.8482C64.2597 40.2852 71.1529 48.0761 69.173 58.0586L64.8482 56.8649C65.719 50.6508 62.0675 45.6799 54.7774 46.5606L53.7188 41.8483V41.8482ZM67.7676 41.6243C66.7091 41.6243 65.8509 42.5157 65.8509 43.6153C65.8509 44.7149 66.7091 45.6062 67.7676 45.6062C68.8262 45.6062 69.6842 44.715 69.6842 43.6153C69.6842 42.5157 68.8263 41.6243 67.7676 41.6243Z" fill="#E5F4EC"/>
<defs>
<radialGradient id="paint0_angular_812_2317" cx="0" cy="0" r="1" gradientUnits="userSpaceOnUse" gradientTransform="translate(37.9204 30.2251) rotate(-74.0546) scale(51.272 69.3896)">
<stop offset="0.158352" stop-color="#BFEAFF"/>
<stop offset="0.515" stop-color="#80D4FF"/>
<stop offset="0.593186" stop-color="#BFE4CF"/>
<stop offset="0.885403" stop-color="#BFE4CF"/>
</radialGradient>
<linearGradient id="paint1_linear_812_2317" x1="44.8073" y1="48.164" x2="58.4697" y2="48.5138" gradientUnits="userSpaceOnUse">
<stop stop-color="#BFE4CF"/>
<stop offset="1" stop-color="#E5F7FF"/>
</linearGradient>
<linearGradient id="paint2_linear_812_2317" x1="56.1189" y1="59.9765" x2="69.7811" y2="60.3263" gradientUnits="userSpaceOnUse">
<stop stop-color="#BFE4CF"/>
<stop offset="0.67" stop-color="#E5F7FF"/>
</linearGradient>
</defs>
</svg>
