<svg width="121" height="52" viewBox="0 0 121 52" fill="none" xmlns="http://www.w3.org/2000/svg">
<path d="M86.2947 29.362C86.2947 27.01 86.7567 24.924 87.6807 23.104C88.6327 21.284 89.9207 19.884 91.5447 18.904C93.1687 17.924 94.9747 17.434 96.9627 17.434C98.4747 17.434 99.9167 17.77 101.289 18.442C102.661 19.086 103.753 19.954 104.565 21.046V10H110.529V41.08H104.565V37.636C103.837 38.784 102.815 39.708 101.499 40.408C100.183 41.108 98.6567 41.458 96.9207 41.458C94.9607 41.458 93.1687 40.954 91.5447 39.946C89.9207 38.938 88.6327 37.524 87.6807 35.704C86.7567 33.856 86.2947 31.742 86.2947 29.362ZM104.607 29.446C104.607 28.018 104.327 26.8 103.767 25.792C103.207 24.756 102.451 23.972 101.499 23.44C100.547 22.88 99.5247 22.6 98.4327 22.6C97.3407 22.6 96.3327 22.866 95.4087 23.398C94.4847 23.93 93.7287 24.714 93.1407 25.75C92.5807 26.758 92.3007 27.962 92.3007 29.362C92.3007 30.762 92.5807 31.994 93.1407 33.058C93.7287 34.094 94.4847 34.892 95.4087 35.452C96.3607 36.012 97.3687 36.292 98.4327 36.292C99.5247 36.292 100.547 36.026 101.499 35.494C102.451 34.934 103.207 34.15 103.767 33.142C104.327 32.106 104.607 30.874 104.607 29.446Z" fill="#E5F4EC"/>
<path d="M72.9331 17.4761C75.7051 17.4761 77.9451 18.3581 79.6531 20.1221C81.3611 21.8581 82.2151 24.2941 82.2151 27.4301V41.0801H76.3351V28.2281C76.3351 26.3801 75.8731 24.9661 74.9491 23.9861C74.0251 22.9781 72.7651 22.4741 71.1691 22.4741C69.5451 22.4741 68.2571 22.9781 67.3051 23.9861C66.3811 24.9661 65.9191 26.3801 65.9191 28.2281V41.0801H60.0391V17.8121H65.9191V20.7101C66.7031 19.7021 67.6971 18.9181 68.9011 18.3581C70.1331 17.7701 71.4771 17.4761 72.9331 17.4761Z" fill="#E5F4EC"/>
<path d="M54.2375 17.812V41.08H48.3155V38.14C47.5595 39.148 46.5655 39.946 45.3335 40.534C44.1295 41.094 42.8135 41.374 41.3855 41.374C39.5655 41.374 37.9555 40.996 36.5555 40.24C35.1555 39.456 34.0495 38.322 33.2375 36.838C32.4535 35.326 32.0615 33.534 32.0615 31.462V17.812H37.9415V30.622C37.9415 32.47 38.4035 33.898 39.3275 34.906C40.2515 35.886 41.5115 36.376 43.1075 36.376C44.7315 36.376 46.0055 35.886 46.9295 34.906C47.8535 33.898 48.3155 32.47 48.3155 30.622V17.812H54.2375Z" fill="#E5F4EC"/>
<path d="M28.102 11.7639V16.5099H15.88V24.0279H25.246V28.6899H15.88V41.0799H10V11.7639H28.102Z" fill="#E5F4EC"/>
</svg>
