<svg width="141" height="54" viewBox="0 0 141 54" fill="none" xmlns="http://www.w3.org/2000/svg">
<path d="M130.183 30.79C130.183 31.63 130.127 32.386 130.015 33.058H113.005C113.145 34.738 113.733 36.054 114.769 37.006C115.805 37.958 117.079 38.434 118.591 38.434C120.775 38.434 122.329 37.496 123.253 35.62H129.595C128.923 37.86 127.635 39.708 125.731 41.164C123.827 42.592 121.489 43.306 118.717 43.306C116.477 43.306 114.461 42.816 112.669 41.836C110.905 40.828 109.519 39.414 108.511 37.594C107.531 35.774 107.041 33.674 107.041 31.294C107.041 28.886 107.531 26.772 108.511 24.952C109.491 23.132 110.863 21.732 112.627 20.752C114.391 19.772 116.421 19.282 118.717 19.282C120.929 19.282 122.903 19.758 124.639 20.71C126.403 21.662 127.761 23.02 128.713 24.784C129.693 26.52 130.183 28.522 130.183 30.79ZM124.093 29.11C124.065 27.598 123.519 26.394 122.455 25.498C121.391 24.574 120.089 24.112 118.549 24.112C117.093 24.112 115.861 24.56 114.853 25.456C113.873 26.324 113.271 27.542 113.047 29.11H124.093Z" fill="url(#paint0_linear_812_2315)"/>
<path d="M102.744 11.8479V42.9279H96.8635V11.8479H102.744Z" fill="url(#paint1_linear_812_2315)"/>
<path d="M86.1122 42.9279L78.2162 33.0159V42.9279H72.3362V11.8479H78.2162V29.5299L86.0282 19.6599H93.6722L83.4242 31.3359L93.7562 42.9279H86.1122Z" fill="url(#paint2_linear_812_2315)"/>
<path d="M61.2357 23.272C61.9917 22.04 62.9717 21.074 64.1757 20.374C65.4077 19.674 66.8077 19.324 68.3757 19.324V25.498H66.8217C64.9737 25.498 63.5737 25.932 62.6217 26.8C61.6977 27.668 61.2357 29.18 61.2357 31.336V42.928H55.3557V19.66H61.2357V23.272Z" fill="url(#paint3_linear_812_2315)"/>
<path d="M46.6484 16.888C45.6124 16.888 44.7444 16.566 44.0444 15.922C43.3724 15.25 43.0364 14.424 43.0364 13.444C43.0364 12.464 43.3724 11.652 44.0444 11.008C44.7444 10.336 45.6124 10 46.6484 10C47.6844 10 48.5384 10.336 49.2104 11.008C49.9104 11.652 50.2604 12.464 50.2604 13.444C50.2604 14.424 49.9104 15.25 49.2104 15.922C48.5384 16.566 47.6844 16.888 46.6484 16.888ZM49.5464 19.66V42.928H43.6664V19.66H49.5464Z" fill="url(#paint4_linear_812_2315)"/>
<path d="M10 28.2279C10 25.3439 10.644 22.7679 11.932 20.4999C13.248 18.2039 15.026 16.4259 17.266 15.1659C19.534 13.8779 22.068 13.2339 24.868 13.2339C28.144 13.2339 31.014 14.0739 33.478 15.7539C35.942 17.4339 37.664 19.7579 38.644 22.7259H31.882C31.21 21.3259 30.258 20.2759 29.026 19.5759C27.822 18.8759 26.422 18.5259 24.826 18.5259C23.118 18.5259 21.592 18.9319 20.248 19.7439C18.932 20.5279 17.896 21.6479 17.14 23.1039C16.412 24.5599 16.048 26.2679 16.048 28.2279C16.048 30.1599 16.412 31.8679 17.14 33.3519C17.896 34.8079 18.932 35.9419 20.248 36.7539C21.592 37.5379 23.118 37.9299 24.826 37.9299C26.422 37.9299 27.822 37.5799 29.026 36.8799C30.258 36.1519 31.21 35.0879 31.882 33.6879H38.644C37.664 36.6839 35.942 39.0219 33.478 40.7019C31.042 42.3539 28.172 43.1799 24.868 43.1799C22.068 43.1799 19.534 42.5499 17.266 41.2899C15.026 40.0019 13.248 38.2239 11.932 35.9559C10.644 33.6879 10 31.1119 10 28.2279Z" fill="url(#paint5_linear_812_2315)"/>
<defs>
<linearGradient id="paint0_linear_812_2315" x1="8.53001" y1="27.928" x2="132.53" y2="27.928" gradientUnits="userSpaceOnUse">
<stop offset="0.215" stop-color="#80C99F"/>
<stop offset="1" stop-color="#E5F7FF"/>
</linearGradient>
<linearGradient id="paint1_linear_812_2315" x1="8.52997" y1="27.9279" x2="132.53" y2="27.9279" gradientUnits="userSpaceOnUse">
<stop offset="0.215" stop-color="#80C99F"/>
<stop offset="1" stop-color="#E5F7FF"/>
</linearGradient>
<linearGradient id="paint2_linear_812_2315" x1="8.52998" y1="27.9279" x2="132.53" y2="27.9279" gradientUnits="userSpaceOnUse">
<stop offset="0.215" stop-color="#80C99F"/>
<stop offset="1" stop-color="#E5F7FF"/>
</linearGradient>
<linearGradient id="paint3_linear_812_2315" x1="8.52998" y1="27.928" x2="132.53" y2="27.928" gradientUnits="userSpaceOnUse">
<stop offset="0.215" stop-color="#80C99F"/>
<stop offset="1" stop-color="#E5F7FF"/>
</linearGradient>
<linearGradient id="paint4_linear_812_2315" x1="8.53009" y1="27.928" x2="132.53" y2="27.928" gradientUnits="userSpaceOnUse">
<stop offset="0.215" stop-color="#80C99F"/>
<stop offset="1" stop-color="#E5F7FF"/>
</linearGradient>
<linearGradient id="paint5_linear_812_2315" x1="8.53" y1="27.9279" x2="132.53" y2="27.9279" gradientUnits="userSpaceOnUse">
<stop offset="0.215" stop-color="#80C99F"/>
<stop offset="1" stop-color="#E5F7FF"/>
</linearGradient>
</defs>
</svg>
