<svg width="121" height="52" viewBox="0 0 121 52" fill="none" xmlns="http://www.w3.org/2000/svg">
<path d="M86.2944 29.362C86.2944 27.01 86.7564 24.924 87.6804 23.104C88.6324 21.284 89.9204 19.884 91.5444 18.904C93.1684 17.924 94.9744 17.434 96.9624 17.434C98.4744 17.434 99.9164 17.77 101.288 18.442C102.66 19.086 103.752 19.954 104.564 21.046V10H110.528V41.08H104.564V37.636C103.836 38.784 102.814 39.708 101.498 40.408C100.182 41.108 98.6564 41.458 96.9204 41.458C94.9604 41.458 93.1684 40.954 91.5444 39.946C89.9204 38.938 88.6324 37.524 87.6804 35.704C86.7564 33.856 86.2944 31.742 86.2944 29.362ZM104.606 29.446C104.606 28.018 104.326 26.8 103.766 25.792C103.206 24.756 102.45 23.972 101.498 23.44C100.546 22.88 99.5244 22.6 98.4324 22.6C97.3404 22.6 96.3324 22.866 95.4084 23.398C94.4844 23.93 93.7284 24.714 93.1404 25.75C92.5804 26.758 92.3004 27.962 92.3004 29.362C92.3004 30.762 92.5804 31.994 93.1404 33.058C93.7284 34.094 94.4844 34.892 95.4084 35.452C96.3604 36.012 97.3684 36.292 98.4324 36.292C99.5244 36.292 100.546 36.026 101.498 35.494C102.45 34.934 103.206 34.15 103.766 33.142C104.326 32.106 104.606 30.874 104.606 29.446Z" fill="#004A1F"/>
<path d="M72.9331 17.4761C75.7051 17.4761 77.9451 18.3581 79.6531 20.1221C81.3611 21.8581 82.2151 24.2941 82.2151 27.4301V41.0801H76.3351V28.2281C76.3351 26.3801 75.8731 24.9661 74.9491 23.9861C74.0251 22.9781 72.7651 22.4741 71.1691 22.4741C69.5451 22.4741 68.2571 22.9781 67.3051 23.9861C66.3811 24.9661 65.9191 26.3801 65.9191 28.2281V41.0801H60.0391V17.8121H65.9191V20.7101C66.7031 19.7021 67.6971 18.9181 68.9011 18.3581C70.1331 17.7701 71.4771 17.4761 72.9331 17.4761Z" fill="#004A1F"/>
<path d="M54.2375 17.812V41.08H48.3155V38.14C47.5595 39.148 46.5655 39.946 45.3335 40.534C44.1295 41.094 42.8135 41.374 41.3855 41.374C39.5655 41.374 37.9555 40.996 36.5555 40.24C35.1555 39.456 34.0495 38.322 33.2375 36.838C32.4535 35.326 32.0615 33.534 32.0615 31.462V17.812H37.9415V30.622C37.9415 32.47 38.4035 33.898 39.3275 34.906C40.2515 35.886 41.5115 36.376 43.1075 36.376C44.7315 36.376 46.0055 35.886 46.9295 34.906C47.8535 33.898 48.3155 32.47 48.3155 30.622V17.812H54.2375Z" fill="#004A1F"/>
<path d="M28.102 11.7639V16.5099H15.88V24.0279H25.246V28.6899H15.88V41.0799H10V11.7639H28.102Z" fill="#004A1F"/>
</svg>
