<svg width="72" height="92" viewBox="0 0 72 92" fill="none" xmlns="http://www.w3.org/2000/svg">
<path fill-rule="evenodd" clip-rule="evenodd" d="M12.5505 0H57.1274C64.0302 0 69.6779 5.86667 69.6779 13.0371V13.0786C69.6779 20.2261 64.0482 26.0742 57.1674 26.0742H24.1104V39.1831H26.3428C33.2401 39.1831 38.8833 45.0449 38.8833 52.2097C38.8833 59.3743 33.2402 65.2365 26.3428 65.2365H24.1104V78.9134C24.1104 85.8008 18.6857 91.4359 12.0553 91.4359C5.4249 91.4359 0 85.8008 0 78.9134V25.8872V13.0372C0 5.86675 5.6477 0 12.5505 0Z" fill="url(#paint0_angular_812_2346)"/>
<path d="M24.111 39.14H18.2629C14.7977 39.14 11.9626 36.195 11.9626 32.5955C11.9626 28.996 14.7977 26.051 18.2629 26.051H24.1101L24.1109 39.14H24.111Z" fill="#316632"/>
<path d="M24.1104 65.3501V78.9135C24.1104 85.8009 18.6857 91.436 12.0553 91.436C5.4249 91.436 0 85.8009 0 78.9135V77.1666C0.422782 70.5926 5.73116 65.3501 12.162 65.3501H24.1104Z" fill="#316632"/>
<path fill-rule="evenodd" clip-rule="evenodd" d="M60.6888 39.4134C48.948 36.9133 39.5805 46.6627 42.2708 58.6085L46.6258 57.6661C45.4404 48.325 50.8457 42.7648 59.449 44.2202L60.6888 39.4135V39.4134ZM51.7343 46.7805C50.6758 46.7805 49.8176 47.6717 49.8176 48.7715C49.8176 49.871 50.6758 50.7624 51.7343 50.7624C52.793 50.7624 53.651 49.871 53.651 48.7715C53.651 47.6718 52.793 46.7805 51.7343 46.7805Z" fill="url(#paint1_linear_812_2346)"/>
<path fill-rule="evenodd" clip-rule="evenodd" d="M53.1172 70.0264C64.8581 72.5267 74.2256 62.7771 71.5352 50.8313L67.1802 51.7739C68.3657 61.1149 62.9603 66.6753 54.3571 65.2197L53.1172 70.0264ZM61.8357 57.9642C60.7772 57.9642 59.919 58.8554 59.919 59.9552C59.919 61.0547 60.7772 61.9462 61.8357 61.9462C62.8942 61.9462 63.7524 61.0547 63.7524 59.9552C63.7524 58.8555 62.8942 57.9642 61.8357 57.9642Z" fill="url(#paint2_linear_812_2346)"/>
<path d="M45.811 63.8037C44.7525 63.8037 43.8943 64.695 43.8943 65.7947C43.8943 66.8943 44.7525 67.7857 45.811 67.7857C46.8696 67.7857 47.7276 66.8943 47.7276 65.7947C47.7276 64.6951 46.8697 63.8037 45.811 63.8037ZM44.525 51.2256L49.0009 52.6078C48.0315 59.3309 52.3797 63.9018 58.8604 62.9435L60.1003 67.6245C51.0736 69.0627 42.7519 63.7708 44.525 51.2256Z" fill="#316632"/>
<path d="M53.7192 41.8484C64.2602 40.2854 71.1533 48.0764 69.1735 58.0589L64.8487 56.8652C65.7195 50.651 62.068 45.6801 54.7779 46.5609L53.7192 41.8485V41.8484ZM67.7681 41.6245C66.7096 41.6245 65.8514 42.516 65.8514 43.6155C65.8514 44.7152 66.7096 45.6065 67.7681 45.6065C68.8267 45.6065 69.6847 44.7153 69.6847 43.6155C69.6847 42.516 68.8268 41.6245 67.7681 41.6245Z" fill="#316632"/>
<defs>
<radialGradient id="paint0_angular_812_2346" cx="0" cy="0" r="1" gradientUnits="userSpaceOnUse" gradientTransform="translate(37.9204 30.2251) rotate(-74.0546) scale(51.272 69.3896)">
<stop offset="0.158352" stop-color="#38B2F5"/>
<stop offset="0.515" stop-color="#41A5A7"/>
<stop offset="0.593186" stop-color="#489B66"/>
<stop offset="0.885403" stop-color="#479C6A"/>
</radialGradient>
<linearGradient id="paint1_linear_812_2346" x1="44.8076" y1="48.1643" x2="58.4699" y2="48.5141" gradientUnits="userSpaceOnUse">
<stop stop-color="#4B974D"/>
<stop offset="1" stop-color="#38B2F5"/>
</linearGradient>
<linearGradient id="paint2_linear_812_2346" x1="56.1186" y1="59.9763" x2="69.7809" y2="60.3261" gradientUnits="userSpaceOnUse">
<stop stop-color="#4B9954"/>
<stop offset="0.67" stop-color="#3FAABE"/>
</linearGradient>
</defs>
</svg>
